<svg xmlns="http://www.w3.org/2000/svg" viewBox="77.0213 114.3693 158.7400 158.7400" preserveAspectRatio="xMidYMid meet">
  <title>LK ROBOTICS corporate logo on white</title>
  <rect x="77.0213" y="114.3693" width="158.7400" height="158.7400" fill="#ffffff" />
  <path d="m 0,0 v -42.031 h 28.142 l -7.307,8.749 H 9.11 L 9.11,0 Z" transform="matrix(1.3333333,0,0,-1.3333333,126.2012,143.84907)" fill="#05132b" />
  <path d="m 0,0 h -10.446 l -18.057,-22.549 16.508,-19.483 h 11.798 l -16.76,19.483 z" transform="matrix(1.3333333,0,0,-1.3333333,186.95587,143.9692)" fill="#05132b" />
  <path d="m 0,0 c 0.526,-0.595 1.413,-1.015 2.502,-1.181 l 0.03,-0.005 V -0.33 L 2.511,-0.327 C 1.307,-0.113 0.574,0.478 0.495,1.297 H 2.478 V 2.152 H -2.464 V 1.297 H -0.5 C -0.58,0.478 -1.31,-0.113 -2.51,-0.327 L -2.531,-0.33 v -0.856 l 0.029,0.005 C -1.412,-1.015 -0.525,-0.595 0,0" transform="matrix(1.3333333,0,0,-1.3333333,106.61507,241.86627)" fill="#6bbbdd" />
  <path d="M 0,0 H 2.283 V -1.614 H 3.259 V 0 H 5.563 V 0.855 H 0 Z" transform="matrix(1.3333333,0,0,-1.3333333,102.91653,245.21547)" fill="#6bbbdd" />
  <path d="m 88.642,142.038 h 0.976 v 3.611 h -0.976 z" transform="matrix(1.3333333,0,0,-1.3333333,0,433.096)" fill="#6bbbdd" />
  <path d="m 0,0 c 0.36,-0.463 1.007,-0.813 1.744,-0.941 l 0.03,-0.005 v 0.861 L 1.755,-0.08 C 0.872,0.185 0.478,0.737 0.478,1.712 V 2.535 H -0.499 V 1.712 c 0,-0.983 -0.428,-1.608 -1.272,-1.859 l -0.018,-0.006 v -0.868 l 0.03,0.006 C -1.005,-0.87 -0.352,-0.492 0,0" transform="matrix(1.3333333,0,0,-1.3333333,114.81107,242.3224)" fill="#6bbbdd" />
  <path d="M 0,0 H 3.816 V -1.614 H 4.792 V 0.848 L 0,0.848 Z" transform="matrix(1.3333333,0,0,-1.3333333,113.1012,245.21547)" fill="#6bbbdd" />
  <path d="m 0,0 c -0.183,0 -0.343,0.056 -0.462,0.162 -0.123,0.116 -0.194,0.287 -0.194,0.467 0,0.181 0.071,0.351 0.193,0.468 C -0.341,1.204 -0.186,1.259 0,1.259 0.182,1.259 0.334,1.204 0.455,1.097 0.578,0.98 0.65,0.81 0.65,0.629 0.65,0.449 0.578,0.279 0.456,0.163 0.334,0.054 0.182,0 0,0 M 2.339,-1.156 C 2.151,-1.316 1.801,-1.398 1.296,-1.398 H 0.493 v 0.629 c 0.222,0.057 0.426,0.153 0.591,0.277 C 1.434,-0.221 1.62,0.166 1.62,0.629 1.62,1.092 1.434,1.48 1.084,1.751 0.794,1.971 0.42,2.087 0,2.087 -0.417,2.087 -0.805,1.968 -1.089,1.751 -1.441,1.48 -1.626,1.092 -1.626,0.629 c 0,-0.462 0.185,-0.85 0.537,-1.121 0.175,-0.135 0.378,-0.228 0.604,-0.277 v -0.629 h -1.412 v -0.856 h 3.018 c 0.571,0 1,0.096 1.218,0.273 v -0.61 H 3.316 V 3.661 H 2.339 Z" transform="matrix(1.3333333,0,0,-1.3333333,124.64267,243.7784)" fill="#6bbbdd" />
  <path d="M 0,0 H -1.311 V 0.716 H -2.288 V 0 H -3.584 V -0.841 H 0 Z" transform="matrix(1.3333333,0,0,-1.3333333,127.02827,239.6088)" fill="#6bbbdd" />
  <path d="M 0,0 V 2.254 H -0.977 V 0 c 0,-1.771 -0.632,-2.302 -1.315,-2.611 L -2.307,-2.618 V -3.52 l 0.032,0.009 c 0.781,0.225 1.477,0.728 1.791,1.289 0.323,-0.563 1.016,-1.065 1.781,-1.289 l 0.033,-0.01 v 0.903 L 1.315,-2.611 C 0.632,-2.302 0,-1.771 0,0" transform="matrix(1.3333333,0,0,-1.3333333,134.61,242.002)" fill="#6bbbdd" />
  <path d="M 0,0 H -0.978 V -6.252 H 0 v 2.945 h 0.932 v 0.849 H 0 Z" transform="matrix(1.3333333,0,0,-1.3333333,138.43787,238.89773)" fill="#6bbbdd" />
  <path d="M 0,0 C 0,0.298 0.062,0.519 0.182,0.637 0.255,0.712 0.341,0.745 0.46,0.745 0.579,0.745 0.665,0.712 0.74,0.637 0.855,0.521 0.914,0.307 0.914,0 0.914,-0.306 0.854,-0.529 0.74,-0.643 0.66,-0.716 0.571,-0.75 0.46,-0.75 0.35,-0.75 0.261,-0.716 0.182,-0.643 0.064,-0.526 0,-0.298 0,0 m 1.321,-1.283 c 0.251,0.202 0.409,0.502 0.472,0.893 H 2.15 V -1.599 H 3.079 V 1.478 H 2.15 V 0.458 H 1.778 C 1.708,0.816 1.555,1.091 1.32,1.277 1.097,1.453 0.8,1.546 0.46,1.546 0.121,1.546 -0.176,1.453 -0.4,1.277 -0.729,1.013 -0.903,0.571 -0.903,0 c 0,-0.575 0.174,-1.018 0.503,-1.283 0.232,-0.176 0.53,-0.269 0.86,-0.269 0.33,0 0.628,0.093 0.861,0.269" transform="matrix(1.3333333,0,0,-1.3333333,146.1,240.91347)" fill="#6bbbdd" />
  <path d="m 113.945,145.649 h -0.937 v -3.145 h 0.937 z" transform="matrix(1.3333333,0,0,-1.3333333,0,433.096)" fill="#6bbbdd" />
  <path d="M 0,0 H 3.79 V 1.896 H -0.977 V 1.101 h 3.79 V 0.788 h -3.79 v -1.889 h 4.841 v 0.808 l -3.864,0 z" transform="matrix(1.3333333,0,0,-1.3333333,146.87387,245.8556)" fill="#6bbbdd" />
  <path d="m 0,0 h -0.528 c 0.006,0.093 0.006,0.187 0.006,0.285 V 2.27 H -2.917 V 1.414 h 1.439 V 0.048 c -0.17,-0.041 -0.407,-0.062 -0.745,-0.062 h -0.694 v -0.855 h 0.66 c 0.291,0 0.517,0.023 0.69,0.071 -0.183,-0.934 -0.643,-1.519 -1.408,-1.79 l -0.017,-0.006 v -0.951 l 0.033,0.009 c 1.327,0.37 2.094,1.245 2.346,2.674 H 0 V -3.8 H 0.951 V 2.343 L 0,2.343 Z" transform="matrix(1.3333333,0,0,-1.3333333,158.5108,242.06733)" fill="#6bbbdd" />
  <path d="m 120.18,139.397 h 0.95 v 6.252 h -0.95 z" transform="matrix(1.3333333,0,0,-1.3333333,0,433.096)" fill="#6bbbdd" />
  <path d="m 0,0 c -0.094,-0.139 -0.253,-0.219 -0.438,-0.219 -0.182,0 -0.335,0.078 -0.431,0.219 -0.216,0.323 -0.246,1.1 -0.246,1.89 0,0.787 0.03,1.56 0.246,1.884 0.096,0.14 0.249,0.218 0.431,0.218 C -0.253,3.992 -0.094,3.913 0,3.774 0.199,3.476 0.238,2.805 0.238,1.89 0.238,0.971 0.199,0.297 0,0 M -0.438,4.848 C -0.925,4.848 -1.344,4.656 -1.613,4.311 -1.998,3.808 -2.078,2.98 -2.078,1.89 c 0,-1.093 0.08,-1.924 0.465,-2.427 0.267,-0.342 0.684,-0.53 1.175,-0.53 0.498,0 0.916,0.188 1.176,0.53 0.413,0.541 0.471,1.486 0.471,2.427 0,0.938 -0.058,1.88 -0.471,2.421 -0.264,0.345 -0.681,0.537 -1.176,0.537" transform="matrix(1.3333333,0,0,-1.3333333,166.92787,245.36947)" fill="#6bbbdd" />
  <path d="m 127.252,139.397 h 0.977 v 6.252 h -0.977 z" transform="matrix(1.3333333,0,0,-1.3333333,0,433.096)" fill="#6bbbdd" />
  <path d="M 0,0 H 2.04 V 0.856 H -1.993 V 1.615 H 1.973 V 4.057 H -2.97 V 3.202 H 0.996 V 2.47 H -2.97 V 0 h 2 v -0.962 h -2.31 v -0.854 h 5.563 v 0.854 l -2.283,0 z" transform="matrix(1.3333333,0,0,-1.3333333,177.94053,244.45053)" fill="#6bbbdd" />
  <path d="m 138.649,143.531 h 2.988 v -0.975 h -2.988 z m 1.993,-1.838 h 1.972 v 3.848 h -0.977 v -1.148 h -2.988 v 1.148 h -0.977 v -3.848 h 1.999 v -1.171 h -2.31 v -0.854 h 5.564 v 0.854 h -2.283 z" transform="matrix(1.3333333,0,0,-1.3333333,0,433.096)" fill="#6bbbdd" />
  <path d="M 0,0 H 3.816 V -1.398 H 4.793 V 0.849 H 0 Z" transform="matrix(1.3333333,0,0,-1.3333333,193.33253,245.5044)" fill="#6bbbdd" />
  <path d="m 0,0 c -0.212,-0.145 -0.524,-0.21 -1.007,-0.21 h -2.13 v 0.563 h 2.061 v 0.814 h -2.061 v 0.544 h 2.203 v 0.814 h -3.172 v -3.557 h 2.842 c 0.638,0 1.032,0.077 1.264,0.249 V -1.235 H 0.977 V 2.599 H 0 Z" transform="matrix(1.3333333,0,0,-1.3333333,198.4204,242.3632)" fill="#6bbbdd" />
  <path d="m 0,0 c 0.53,-0.747 1.493,-1.29 2.65,-1.493 l 0.031,-0.005 v 0.862 l -0.02,0.004 C 1.217,-0.295 0.486,0.544 0.486,1.862 V 2.313 H -0.492 V 1.862 c 0,-1.319 -0.729,-2.158 -2.168,-2.494 l -0.02,-0.004 v -0.862 l 0.031,0.005 C -1.492,-1.29 -0.528,-0.746 0,0" transform="matrix(1.3333333,0,0,-1.3333333,206.0096,242.08107)" fill="#6bbbdd" />
  <path d="m 151.732,139.668 h 5.564 v 0.855 h -5.564 z" transform="matrix(1.3333333,0,0,-1.3333333,0,433.096)" fill="#6bbbdd" />
  <path d="m 0,0 v 2.562 h 2.146 c 0.676,0 1.223,-0.547 1.223,-1.222 V 1.222 C 3.369,0.547 2.822,0 2.146,0 Z m 6.548,-5.362 -2.684,3.881 c 1.272,0.498 2.161,1.622 2.161,2.918 0,1.754 -1.626,3.181 -3.627,3.181 h -4.96 V -5.456 h 2.623 v 3.622 h 1.126 l 2.325,-3.528 z" transform="matrix(1.3333333,0,0,-1.3333333,106.656,218.96733)" fill="#05132b" />
  <path d="m 0,0 c 0,-1.5 -1.216,-2.716 -2.716,-2.716 -1.5,0 -2.716,1.216 -2.716,2.716 v 0.617 c 0,1.5 1.216,2.716 2.716,2.716 C -1.216,3.333 0,2.117 0,0.617 Z m -2.23,5.469 h -0.735 c -2.804,0 -5.077,-2.274 -5.077,-5.077 V 0.249 c 0,-2.804 2.273,-5.076 5.077,-5.076 h 0.735 c 2.804,0 5.077,2.272 5.077,5.076 v 0.143 c 0,2.803 -2.273,5.077 -5.077,5.077" transform="matrix(1.3333333,0,0,-1.3333333,127.31013,219.83747)" fill="#05132b" />
  <path d="m 0,0 c 0,-1.5 -1.216,-2.716 -2.717,-2.716 -1.499,0 -2.715,1.216 -2.715,2.716 v 0.617 c 0,1.5 1.216,2.716 2.715,2.716 C -1.216,3.333 0,2.117 0,0.617 Z m -2.23,5.468 h -0.736 c -2.803,0 -5.076,-2.273 -5.076,-5.076 V 0.249 c 0,-2.804 2.273,-5.076 5.076,-5.076 h 0.736 c 2.803,0 5.076,2.272 5.076,5.076 v 0.143 c 0,2.803 -2.273,5.076 -5.076,5.076" transform="matrix(1.3333333,0,0,-1.3333333,158.3708,219.77413)" fill="#05132b" />
  <path d="M 0,0 H -2.686 V 2.206 H 0 C 0.61,2.206 1.103,1.712 1.103,1.104 1.103,0.494 0.61,0 0,0 m -2.686,5.955 h 2.316 c 0.477,0 0.863,-0.387 0.863,-0.864 V 5.015 C 0.493,4.538 0.107,4.151 -0.37,4.151 H -2.686 Z M 1.439,3.34 c 1.011,0.284 1.752,1.212 1.752,2.313 0,1.253 -1.017,2.27 -2.271,2.27 h -6.198 l 0.048,-9.844 h 6.268 c 1.464,0 2.651,1.187 2.651,2.651 0,1.325 -0.977,2.422 -2.25,2.61" transform="matrix(1.3333333,0,0,-1.3333333,140.45173,223.4276)" fill="#05132b" />
  <path d="m 0,0 h -9.205 v -2.23 h 3.227 v -7.876 h 2.561 v 7.876 l 3.417,0 z" transform="matrix(1.3333333,0,0,-1.3333333,175.86253,212.736)" fill="#05132b" />
  <path d="m 136.498,155.164 h -2.609 v 10.058 h 2.609 z" transform="matrix(1.3333333,0,0,-1.3333333,0,433.096)" fill="#05132b" />
  <path d="m 0,0 c -1.547,0 -2.8,1.339 -2.8,2.989 0,1.651 1.253,2.989 2.8,2.989 0.952,0 1.793,-0.508 2.298,-1.284 L 4.036,6.545 C 3.024,7.525 1.61,8.137 0.047,8.137 c -3.067,0 -5.563,-2.35 -5.563,-5.237 0,-2.887 2.496,-5.237 5.563,-5.237 1.658,0 3.148,0.687 4.168,1.775 L 2.173,1.107 C 1.661,0.432 0.878,0 0,0" transform="matrix(1.3333333,0,0,-1.3333333,191.81947,223.3324)" fill="#05132b" />
  <path d="m 0,0 1.518,2.04 c 0,0 -0.961,1.281 -4.057,1.115 -3.095,-0.166 -3.926,-1.993 -3.914,-3.108 0.012,-1.115 0.403,-2.099 1.21,-2.68 0.807,-0.582 2.254,-0.711 2.254,-0.711 0,0 2.004,-0.297 1.945,-1.02 -0.059,-0.725 -0.688,-1.01 -1.305,-1.022 -0.617,-0.011 -1.85,0.286 -3.013,1.022 l -1.447,-1.828 c 0,0 0.842,-1.044 3.772,-1.446 2.93,-0.404 4.508,1.612 4.674,2.3 0.165,0.688 0.355,1.97 -0.546,2.894 -0.902,0.926 -1.732,1.186 -3.226,1.424 -1.495,0.238 -1.566,1.079 -1.329,1.4 0.238,0.32 1.163,0.782 2.23,0.284 C -0.166,0.166 0,0 0,0" transform="matrix(1.3333333,0,0,-1.3333333,207.3968,216.38947)" fill="#05132b" />
</svg>
